<svg xmlns="http://www.w3.org/2000/svg" width="482" height="46" viewBox="0 0 482 46">
  <g id="skill-3" transform="translate(-352 -2564)">
    <rect id="Rectangle_3" data-name="Rectangle 3" width="24" height="36" transform="translate(364 2569)" fill="#fff"/>
    <rect id="Rectangle_4" data-name="Rectangle 4" width="24" height="36" transform="translate(393 2569)" fill="#fff"/>
    <rect id="Rectangle_6" data-name="Rectangle 6" width="24" height="36" transform="translate(422 2569)" fill="#fff"/>
    <rect id="Rectangle_7" data-name="Rectangle 7" width="24" height="36" transform="translate(451 2569)" fill="#fff"/>
    <rect id="Rectangle_8" data-name="Rectangle 8" width="24" height="36" transform="translate(480 2569)" fill="#fff"/>
    <rect id="Rectangle_9" data-name="Rectangle 9" width="24" height="36" transform="translate(509 2569)" fill="#fff"/>
    <rect id="Rectangle_10" data-name="Rectangle 10" width="24" height="36" transform="translate(538 2569)" fill="#fff"/>
    <rect id="Rectangle_11" data-name="Rectangle 11" width="24" height="36" transform="translate(567 2569)" fill="#fff"/>
    <rect id="Rectangle_12" data-name="Rectangle 12" width="24" height="36" transform="translate(596 2569)" fill="#fff"/>
    <rect id="Rectangle_13" data-name="Rectangle 13" width="24" height="36" transform="translate(625 2569)" fill="#fff"/>
    <rect id="Rectangle_14" data-name="Rectangle 14" width="24" height="36" transform="translate(654 2569)" fill="#fff"/>
    <rect id="Rectangle_15" data-name="Rectangle 15" width="24" height="36" transform="translate(683 2569)" fill="#fff"/>
    <rect id="Rectangle_16" data-name="Rectangle 16" width="24" height="36" transform="translate(712 2569)" fill="rgba(141,141,141,0.35)"/>
    <rect id="Rectangle_17" data-name="Rectangle 17" width="24" height="36" transform="translate(741 2569)" fill="rgba(141,141,141,0.35)"/>
    <rect id="Rectangle_18" data-name="Rectangle 18" width="24" height="36" transform="translate(770 2569)" fill="rgba(141,141,141,0.35)"/>
    <rect id="Rectangle_19" data-name="Rectangle 19" width="24" height="36" transform="translate(799 2569)" fill="rgba(141,141,141,0.35)"/>
    <g id="Rectangle_20" data-name="Rectangle 20" transform="translate(352 2564)" fill="none" stroke="#fff" stroke-linejoin="round" stroke-width="2">
      <rect width="482" height="46" rx="18" stroke="none"/>
      <rect x="1" y="1" width="480" height="44" rx="17" fill="none"/>
    </g>
  </g>
</svg>
