<svg xmlns="http://www.w3.org/2000/svg" width="482" height="46" viewBox="0 0 482 46">
  <g id="skill-4" transform="translate(-1068 -2347)">
    <g id="Rectangle_3" data-name="Rectangle 3" transform="translate(1080 2352)" fill="#fff" stroke="#707070" stroke-width="1">
      <rect width="24" height="36" stroke="none"/>
      <rect x="0.5" y="0.5" width="23" height="35" fill="none"/>
    </g>
    <g id="Rectangle_4" data-name="Rectangle 4" transform="translate(1109 2352)" fill="#fff" stroke="#707070" stroke-width="1">
      <rect width="24" height="36" stroke="none"/>
      <rect x="0.5" y="0.5" width="23" height="35" fill="none"/>
    </g>
    <g id="Rectangle_6" data-name="Rectangle 6" transform="translate(1138 2352)" fill="#fff" stroke="#707070" stroke-width="1">
      <rect width="24" height="36" stroke="none"/>
      <rect x="0.5" y="0.5" width="23" height="35" fill="none"/>
    </g>
    <g id="Rectangle_7" data-name="Rectangle 7" transform="translate(1167 2352)" fill="#fff" stroke="#707070" stroke-width="1">
      <rect width="24" height="36" stroke="none"/>
      <rect x="0.5" y="0.5" width="23" height="35" fill="none"/>
    </g>
    <g id="Rectangle_8" data-name="Rectangle 8" transform="translate(1196 2352)" fill="#fff" stroke="#707070" stroke-width="1">
      <rect width="24" height="36" stroke="none"/>
      <rect x="0.5" y="0.5" width="23" height="35" fill="none"/>
    </g>
    <g id="Rectangle_9" data-name="Rectangle 9" transform="translate(1225 2352)" fill="#fff" stroke="#707070" stroke-width="1">
      <rect width="24" height="36" stroke="none"/>
      <rect x="0.5" y="0.5" width="23" height="35" fill="none"/>
    </g>
    <g id="Rectangle_10" data-name="Rectangle 10" transform="translate(1254 2352)" fill="#fff" stroke="#707070" stroke-width="1">
      <rect width="24" height="36" stroke="none"/>
      <rect x="0.5" y="0.5" width="23" height="35" fill="none"/>
    </g>
    <g id="Rectangle_11" data-name="Rectangle 11" transform="translate(1283 2352)" fill="#fff" stroke="#707070" stroke-width="1">
      <rect width="24" height="36" stroke="none"/>
      <rect x="0.5" y="0.5" width="23" height="35" fill="none"/>
    </g>
    <g id="Rectangle_12" data-name="Rectangle 12" transform="translate(1312 2352)" fill="#fff" stroke="#707070" stroke-width="1">
      <rect width="24" height="36" stroke="none"/>
      <rect x="0.5" y="0.5" width="23" height="35" fill="none"/>
    </g>
    <g id="Rectangle_13" data-name="Rectangle 13" transform="translate(1341 2352)" fill="#fff" stroke="#707070" stroke-width="1">
      <rect width="24" height="36" stroke="none"/>
      <rect x="0.5" y="0.5" width="23" height="35" fill="none"/>
    </g>
    <g id="Rectangle_14" data-name="Rectangle 14" transform="translate(1370 2352)" fill="#fff" stroke="#707070" stroke-width="1">
      <rect width="24" height="36" stroke="none"/>
      <rect x="0.5" y="0.5" width="23" height="35" fill="none"/>
    </g>
    <g id="Rectangle_15" data-name="Rectangle 15" transform="translate(1399 2352)" fill="#fff" stroke="#707070" stroke-width="1">
      <rect width="24" height="36" stroke="none"/>
      <rect x="0.5" y="0.5" width="23" height="35" fill="none"/>
    </g>
    <g id="Rectangle_18" data-name="Rectangle 18" transform="translate(1486 2352)" fill="rgba(141,141,141,0.35)" stroke="#707070" stroke-width="1">
      <rect width="24" height="36" stroke="none"/>
      <rect x="0.5" y="0.5" width="23" height="35" fill="none"/>
    </g>
    <g id="Rectangle_19" data-name="Rectangle 19" transform="translate(1515 2352)" fill="rgba(141,141,141,0.35)" stroke="#707070" stroke-width="1">
      <rect width="24" height="36" stroke="none"/>
      <rect x="0.5" y="0.5" width="23" height="35" fill="none"/>
    </g>
    <g id="Rectangle_20" data-name="Rectangle 20" transform="translate(1068 2347)" fill="none" stroke="#fff" stroke-linejoin="round" stroke-width="2">
      <rect width="482" height="46" rx="18" stroke="none"/>
      <rect x="1" y="1" width="480" height="44" rx="17" fill="none"/>
    </g>
    <g id="Rectangle_30" data-name="Rectangle 30" transform="translate(1428 2352)" fill="#fff" stroke="#707070" stroke-width="1">
      <rect width="24" height="36" stroke="none"/>
      <rect x="0.5" y="0.5" width="23" height="35" fill="none"/>
    </g>
    <g id="Rectangle_31" data-name="Rectangle 31" transform="translate(1457 2352)" fill="#fff" stroke="#707070" stroke-width="1">
      <rect width="24" height="36" stroke="none"/>
      <rect x="0.5" y="0.5" width="23" height="35" fill="none"/>
    </g>
  </g>
</svg>
