<svg xmlns="http://www.w3.org/2000/svg" width="482" height="46" viewBox="0 0 482 46">
  <g id="skill-5" transform="translate(-1068 -2458)">
    <rect id="Rectangle_3" data-name="Rectangle 3" width="24" height="36" transform="translate(1080 2463)" fill="#fff"/>
    <rect id="Rectangle_4" data-name="Rectangle 4" width="24" height="36" transform="translate(1109 2463)" fill="#fff"/>
    <rect id="Rectangle_6" data-name="Rectangle 6" width="24" height="36" transform="translate(1138 2463)" fill="#fff"/>
    <rect id="Rectangle_7" data-name="Rectangle 7" width="24" height="36" transform="translate(1167 2463)" fill="#fff"/>
    <rect id="Rectangle_8" data-name="Rectangle 8" width="24" height="36" transform="translate(1196 2463)" fill="#fff"/>
    <rect id="Rectangle_9" data-name="Rectangle 9" width="24" height="36" transform="translate(1225 2463)" fill="#fff"/>
    <rect id="Rectangle_10" data-name="Rectangle 10" width="24" height="36" transform="translate(1254 2463)" fill="#fff"/>
    <rect id="Rectangle_11" data-name="Rectangle 11" width="24" height="36" transform="translate(1283 2463)" fill="#fff"/>
    <rect id="Rectangle_16" data-name="Rectangle 16" width="24" height="36" transform="translate(1428 2463)" fill="rgba(141,141,141,0.35)"/>
    <rect id="Rectangle_17" data-name="Rectangle 17" width="24" height="36" transform="translate(1457 2463)" fill="rgba(141,141,141,0.35)"/>
    <rect id="Rectangle_18" data-name="Rectangle 18" width="24" height="36" transform="translate(1486 2463)" fill="rgba(141,141,141,0.35)"/>
    <rect id="Rectangle_19" data-name="Rectangle 19" width="24" height="36" transform="translate(1515 2463)" fill="rgba(141,141,141,0.35)"/>
    <g id="Rectangle_20" data-name="Rectangle 20" transform="translate(1068 2458)" fill="none" stroke="#fff" stroke-linejoin="round" stroke-width="2">
      <rect width="482" height="46" rx="18" stroke="none"/>
      <rect x="1" y="1" width="480" height="44" rx="17" fill="none"/>
    </g>
    <rect id="Rectangle_24" data-name="Rectangle 24" width="24" height="36" transform="translate(1399 2463)" fill="rgba(141,141,141,0.35)"/>
    <rect id="Rectangle_25" data-name="Rectangle 25" width="24" height="36" transform="translate(1370 2463)" fill="rgba(141,141,141,0.35)"/>
    <rect id="Rectangle_26" data-name="Rectangle 26" width="24" height="36" transform="translate(1341 2463)" fill="rgba(141,141,141,0.35)"/>
    <rect id="Rectangle_34" data-name="Rectangle 34" width="24" height="36" transform="translate(1312 2463)" fill="#fff"/>
  </g>
</svg>
